<?xml version="1.0" encoding="utf-8"?>
<!-- Generator: Adobe Illustrator 28.1.0, SVG Export Plug-In . SVG Version: 6.00 Build 0)  -->
<svg version="1.1" id="Layer_1" xmlns="http://www.w3.org/2000/svg" xmlns:xlink="http://www.w3.org/1999/xlink" x="0px" y="0px"
	 viewBox="0 0 240 46" style="enable-background:new 0 0 240 46;" xml:space="preserve">
<style type="text/css">
	.st0{fill-rule:evenodd;clip-rule:evenodd;fill:url(#SVGID_1_);}
	.st1{fill-rule:evenodd;clip-rule:evenodd;fill:url(#SVGID_00000047054752064439146250000015669370548666274743_);}
	.st2{fill-rule:evenodd;clip-rule:evenodd;fill:url(#SVGID_00000124160892111423981290000007658340537078368912_);}
	.st3{fill:#FFFFFF;}
</style>
<linearGradient id="SVGID_1_" gradientUnits="userSpaceOnUse" x1="2.8333" y1="21.1667" x2="43.1666" y2="21.1667" gradientTransform="matrix(1 0 0 -1 0 48)">
	<stop  offset="0" style="stop-color:#2AF598"/>
	<stop  offset="1" style="stop-color:#009EFD"/>
</linearGradient>
<path class="st0" d="M3.8,16.2c0.6,0,1,0.4,1,1c0,4.8,1.9,9.4,5.3,12.8s8,5.3,12.8,5.3s9.4-1.9,12.8-5.3c3.4-3.4,5.3-8,5.3-12.8
	c0-0.6,0.4-1,1-1c0.6,0,1,0.4,1,1c0,5.3-2.1,10.5-5.9,14.3c-3.8,3.8-8.9,5.9-14.3,5.9c-5.3,0-10.5-2.1-14.3-5.9
	C5,27.7,2.8,22.6,2.8,17.2C2.8,16.7,3.3,16.2,3.8,16.2z"/>
<linearGradient id="SVGID_00000164496156488194343380000001148359698841903246_" gradientUnits="userSpaceOnUse" x1="2.8333" y1="21.1667" x2="43.1666" y2="21.1667" gradientTransform="matrix(1 0 0 -1 0 48)">
	<stop  offset="0" style="stop-color:#2AF598"/>
	<stop  offset="1" style="stop-color:#009EFD"/>
</linearGradient>
<path style="fill-rule:evenodd;clip-rule:evenodd;fill:url(#SVGID_00000164496156488194343380000001148359698841903246_);" d="
	M2.8,17.2c0-0.6,0.4-1,1-1c2.6,0,5.3,0.5,7.7,1.5c2.4,1,4.7,2.5,6.5,4.4c1.9,1.9,3.4,4.1,4.4,6.5c0.2,0.5,0.4,1,0.5,1.4
	c1-3,2.6-5.7,4.9-8c3.8-3.8,8.9-5.9,14.3-5.9c0.6,0,1,0.4,1,1s-0.4,1-1,1c-4.8,0-9.4,1.9-12.8,5.3s-5.3,8-5.3,12.8c0,0.6-0.4,1-1,1
	s-1-0.4-1-1c0-2.4-0.5-4.7-1.4-7c-0.9-2.2-2.3-4.2-3.9-5.9s-3.7-3-5.9-3.9c-2.2-0.9-4.6-1.4-7-1.4C3.3,18.2,2.8,17.8,2.8,17.2z"/>
<linearGradient id="SVGID_00000116195018235803633900000006505141450835089548_" gradientUnits="userSpaceOnUse" x1="16.246" y1="33.1457" x2="29.754" y2="33.1457" gradientTransform="matrix(1 0 0 -1 0 48)">
	<stop  offset="0" style="stop-color:#2AF598"/>
	<stop  offset="1" style="stop-color:#009EFD"/>
</linearGradient>
<path style="fill-rule:evenodd;clip-rule:evenodd;fill:url(#SVGID_00000116195018235803633900000006505141450835089548_);" d="
	M23.7,6.9c-0.1-0.1-0.2-0.1-0.3-0.2c-0.1-0.1-0.3-0.1-0.4-0.1c-0.3,0-0.5,0.1-0.7,0.3c-2,1.9-3.6,4.3-4.7,6.9
	c-1,2.6-1.5,5.4-1.4,8.2c0,0.6,0.5,1,1,0.9s1-0.5,0.9-1c-0.1-2.5,0.3-5,1.2-7.4c0.8-2,2-3.9,3.5-5.5c1.5,1.6,2.7,3.5,3.5,5.5
	c0.9,2.3,1.4,4.9,1.2,7.4c0,0.6,0.4,1,0.9,1s1-0.4,1-0.9c0.1-2.8-0.3-5.6-1.4-8.2C27.3,11.2,25.7,8.9,23.7,6.9z"/>
<g>
	<path class="st3" d="M50.5,33.5V12.8h16.3V18h-9.1v3.9h8.1v4.9h-8.1v6.7H50.5z"/>
	<path class="st3" d="M69.1,31.7c-1.6-1.5-2.4-3.4-2.4-5.6c0-2.2,0.8-4.1,2.4-5.6c1.6-1.5,3.7-2.3,6.3-2.3c2.3,0,4.1,0.6,5.6,1.9
		s2.3,3.1,2.3,5.5c0,0.3,0,0.7-0.1,1c0,0.3-0.1,0.6-0.1,0.7l0,0.2h-9.9c0.5,1.3,1.5,2,3.2,2c1.6,0,2.9-0.3,3.9-1l1.5,3.5
		c0,0-0.1,0.1-0.2,0.2c-0.1,0.1-0.4,0.3-0.7,0.5c-0.4,0.2-0.8,0.4-1.3,0.6c-0.5,0.2-1.1,0.3-1.8,0.5C77,33.9,76.2,34,75.3,34
		C72.8,34,70.7,33.2,69.1,31.7z M73,24.9h4.3c0-0.7-0.2-1.2-0.5-1.6c-0.3-0.4-0.8-0.6-1.5-0.6C74.1,22.7,73.3,23.4,73,24.9z"/>
	<path class="st3" d="M84.9,33.5V18.7h6.4v2.4c1.1-1.8,2.6-2.6,4.4-2.6v5.2c-0.4-0.1-0.9-0.1-1.2-0.1c-1.3,0-2.2,0.6-2.7,1.7v8.3
		H84.9z"/>
	<path class="st3" d="M96.9,33.5V18.7h6.4v2.5c1.1-1.8,2.8-2.8,4.9-2.8c1.6,0,2.9,0.5,3.9,1.5c1,1,1.5,2.4,1.5,4.2v9.4h-6.9v-7.9
		c0-0.7-0.1-1.2-0.3-1.5c-0.2-0.3-0.5-0.4-0.9-0.4c-0.8,0-1.4,0.6-1.7,1.7v8.2H96.9z"/>
	<path class="st3" d="M123.4,28.3c0-2.6,1.4-4.6,4.2-6c-1-1.2-1.5-2.5-1.5-3.9c0-1.9,0.6-3.4,1.9-4.5c1.3-1.1,2.8-1.6,4.5-1.6
		c1.7,0,3.2,0.5,4.4,1.6s1.8,2.6,1.8,4.5c0,2-1.1,3.7-3.2,5.1l2.2,1.9l1.8-2.4l3.7,2.2c-0.7,1-1.4,2.1-2.1,3.1l2.1,1.9l-3,3.7
		l-2.4-2.2c-2,1.5-4.3,2.2-6.7,2.2c-1.3,0-2.6-0.2-3.7-0.6c-1.1-0.4-2.1-1.1-2.8-1.9C123.8,30.6,123.4,29.5,123.4,28.3z M129.8,27.6
		c0,0.5,0.2,0.9,0.6,1.2c0.4,0.3,0.9,0.5,1.6,0.5c0.7,0,1.4-0.2,2.2-0.7l-3.2-2.9C130.3,26.2,129.8,26.8,129.8,27.6z M131.1,18.5
		c0,0.9,0.4,1.7,1.2,2.4c1.2-0.7,1.7-1.5,1.7-2.4c0-0.6-0.1-1.1-0.4-1.4s-0.6-0.5-1.1-0.5c-0.5,0-0.8,0.2-1.1,0.5
		S131.1,17.9,131.1,18.5z"/>
	<path class="st3" d="M153.1,33.5V12.8h16.3V18h-9.1v3.9h8.1v4.9h-8.1v6.7H153.1z"/>
	<path class="st3" d="M170.8,31V12.8h6.9v20.7c-1.2,0.2-2.3,0.2-3.5,0.2c-1.3,0-2.2-0.2-2.7-0.7S170.8,31.9,170.8,31z"/>
	<path class="st3" d="M181.7,31.7c-1.6-1.5-2.4-3.4-2.4-5.6c0-2.2,0.8-4.1,2.4-5.6c1.6-1.5,3.7-2.3,6.3-2.3s4.7,0.8,6.3,2.3
		c1.6,1.5,2.4,3.4,2.4,5.6c0,2.2-0.8,4.1-2.4,5.6c-1.6,1.5-3.7,2.3-6.3,2.3S183.3,33.2,181.7,31.7z M186.3,24.2
		c-0.4,0.5-0.6,1.2-0.6,1.9c0,0.8,0.2,1.4,0.6,1.9s0.9,0.8,1.6,0.8c0.7,0,1.2-0.3,1.6-0.8c0.4-0.5,0.6-1.2,0.6-1.9
		c0-0.8-0.2-1.4-0.6-1.9c-0.4-0.5-0.9-0.8-1.6-0.8C187.2,23.4,186.7,23.7,186.3,24.2z"/>
	<path class="st3" d="M198.2,33.5V18.7h6.4v2.4c1.1-1.8,2.6-2.6,4.4-2.6v5.2c-0.4-0.1-0.9-0.1-1.2-0.1c-1.3,0-2.2,0.6-2.7,1.7v8.3
		H198.2z"/>
	<path class="st3" d="M211,32.5c-0.9-0.9-1.3-2-1.3-3.4c0-1.4,0.4-2.5,1.3-3.4c0.9-0.9,2.1-1.3,3.8-1.3c1.7,0,3.1,0.5,4.1,1.4v-1.2
		c0-0.7-0.2-1.2-0.7-1.5c-0.5-0.3-1.2-0.4-2.2-0.4c-1.2,0-2.8,0.3-4.6,1l-1.5-3.7c0.2-0.1,0.5-0.3,0.9-0.5c0.4-0.2,1.3-0.4,2.6-0.8
		s2.8-0.5,4.2-0.5c5.2,0,7.8,2.1,7.8,6.2v9.1h-6.2v-1.7c0,0-0.1,0.1-0.1,0.2c-0.1,0.1-0.2,0.3-0.5,0.5c-0.3,0.2-0.6,0.4-0.9,0.6
		c-0.3,0.2-0.7,0.3-1.3,0.5s-1.1,0.2-1.8,0.2C213.1,33.8,211.9,33.3,211,32.5z M216.7,28.1c-0.2,0.2-0.3,0.5-0.3,0.9
		s0.1,0.7,0.3,0.9c0.2,0.2,0.5,0.3,0.8,0.3c0.5,0,0.9-0.2,1.4-0.5v-1.4c-0.4-0.4-0.9-0.5-1.4-0.5C217.2,27.8,216.9,27.9,216.7,28.1z
		"/>
</g>
</svg>
